<?xml version="1.0" encoding="UTF-8"?>
<svg id="Layer_1" xmlns="http://www.w3.org/2000/svg" xmlns:serif="http://www.serif.com/" version="1.1" viewBox="0 0 256 256">
  <!-- Generator: Adobe Illustrator 29.6.1, SVG Export Plug-In . SVG Version: 2.1.1 Build 9)  -->
  <defs>
    <style>
      .st0 {
        fill: #00a5b1;
        fill-rule: evenodd;
      }
    </style>
  </defs>
  <path class="st0" d="M128,256c70.7,0,128-57.3,128-128S198.7,0,128,0,0,57.3,0,128s57.3,128,128,128ZM127.5,154.4l10,29.9c.5,1.5,1.9,2.5,3.5,2.5s3-1,3.5-2.5l10-29.9,29.9-10c1.5-.5,2.5-1.9,2.5-3.5s-1-3-2.5-3.5l-29.9-10-10-29.9c-.5-1.5-1.9-2.5-3.5-2.5s-3,1-3.5,2.5l-10,29.9-29.9,10c-1.5.5-2.5,1.9-2.5,3.5s1,3,2.5,3.5l29.9,10ZM72.7,84.1l-6.5,13c-.7,1.4-.4,3.1.7,4.2,1.1,1.1,2.8,1.4,4.2.7l13-6.5,13,6.5c1.4.7,3.1.4,4.2-.7,1.1-1.1,1.4-2.8.7-4.2l-6.5-13,6.5-13c.7-1.4.4-3.1-.7-4.2-1.1-1.1-2.8-1.4-4.2-.7l-13,6.5-13-6.5c-1.4-.7-3.1-.4-4.2.7-1.1,1.1-1.4,2.8-.7,4.2l6.5,13Z"/>
</svg>