<?xml version="1.0" encoding="UTF-8"?>
<svg id="Layer_1" xmlns="http://www.w3.org/2000/svg" xmlns:serif="http://www.serif.com/" version="1.1" viewBox="0 0 256 256">
  <!-- Generator: Adobe Illustrator 29.6.1, SVG Export Plug-In . SVG Version: 2.1.1 Build 9)  -->
  <defs>
    <style>
      .st0 {
        fill: #00a5b1;
        fill-rule: evenodd;
      }
    </style>
  </defs>
  <path class="st0" d="M128,256c70.7,0,128-57.3,128-128S198.7,0,128,0,0,57.3,0,128s57.3,128,128,128ZM117.6,169.6c-7.5,0-14.6-1.5-21.1-4.1,9.5,17.7,28.2,29.8,49.7,29.8s17.1-2,24.5-5.6l20.3,6.3c7.5,2.3,14.6-4.7,12.3-12.2l-6.3-20.5c3.5-7.4,5.5-15.6,5.5-24.3,0-21.3-11.8-39.9-29.3-49.4,3.9,7.2,6.2,15.2,6.2,23.7,0,31.1-30.7,56.3-61.8,56.3ZM161.5,96.3c0,31.1-25.3,56.3-56.5,56.3s-17.2-2-24.6-5.6l-20.4,6.3c-7.5,2.3-14.6-4.7-12.3-12.2l6.3-20.5c-3.5-7.4-5.5-15.6-5.5-24.3,0-31.1,25.3-56.3,56.5-56.3s56.5,25.2,56.5,56.3Z"/>
</svg>