<?xml version="1.0" encoding="UTF-8"?>
<svg id="Layer_1" xmlns="http://www.w3.org/2000/svg" version="1.1" viewBox="0 0 24 24">
  <!-- Generator: Adobe Illustrator 29.6.1, SVG Export Plug-In . SVG Version: 2.1.1 Build 9)  -->
  <defs>
    <style>
      .st0 {
        fill: #00a5b1;
        fill-rule: evenodd;
      }
    </style>
  </defs>
  <path class="st0" d="M11.6,10.5s0,0,0,.1l-.4,2c0,.2.1.4.3.3l2-.4c0,0,.1,0,.1,0l8.4-8.4c.1-.1.1-.3,0-.4l-1.6-1.6c-.1-.1-.3-.1-.4,0l-8.4,8.4ZM2,6.7v12.2c0,.8.3,1.6.9,2.2.6.6,1.3.9,2.1.9h12c.8,0,1.6-.3,2.1-.9.6-.6.9-1.4.9-2.2v-7.3c0-.3-.1-.5-.3-.7-.2-.2-.4-.3-.7-.3s-.5.1-.7.3c-.2.2-.3.5-.3.7v7.3c0,.3-.1.5-.3.7-.2.2-.4.3-.7.3H5c-.3,0-.5-.1-.7-.3-.2-.2-.3-.5-.3-.7V6.7c0-.3.1-.5.3-.7.2-.2.4-.3.7-.3h7.1c.3,0,.5-.1.7-.3.2-.2.3-.5.3-.7s-.1-.5-.3-.7c-.2-.2-.4-.3-.7-.3h-7.1c-.8,0-1.6.3-2.1.9-.6.6-.9,1.4-.9,2.2Z"/>
</svg>